<?xml version="1.0" encoding="UTF-8" standalone="no"?>
<!-- Created with Inkscape (http://www.inkscape.org/) -->

<svg
   xmlns:dc="http://purl.org/dc/elements/1.1/"
   xmlns:cc="http://creativecommons.org/ns#"
   xmlns:rdf="http://www.w3.org/1999/02/22-rdf-syntax-ns#"
   xmlns:svg="http://www.w3.org/2000/svg"
   xmlns="http://www.w3.org/2000/svg"
   xmlns:xlink="http://www.w3.org/1999/xlink"
   xmlns:sodipodi="http://sodipodi.sourceforge.net/DTD/sodipodi-0.dtd"
   xmlns:inkscape="http://www.inkscape.org/namespaces/inkscape"
   id="svg1"
   sodipodi:version="0.32"
   inkscape:version="0.47 r22583"
   width="48"
   height="48"
   sodipodi:docname="birthday03.svg"
   version="1.1"
   inkscape:export-filename="birthday03.png"
   inkscape:export-xdpi="89.949997"
   inkscape:export-ydpi="89.949997">
  <defs
     id="defs3">
    <linearGradient
       id="linearGradient3770">
      <stop
         style="stop-color:#d1f6f6;stop-opacity:1;"
         offset="0"
         id="stop3772" />
      <stop
         style="stop-color:#2adbdb;stop-opacity:1;"
         offset="1"
         id="stop3774" />
    </linearGradient>
    <linearGradient
       id="linearGradient2868">
      <stop
         id="stop2870"
         offset="0"
         style="stop-color:#d700d7;stop-opacity:1;" />
      <stop
         id="stop2872"
         offset="1"
         style="stop-color:#6e006e;stop-opacity:1;" />
    </linearGradient>
    <linearGradient
       id="linearGradient3669">
      <stop
         id="stop3671"
         offset="0"
         style="stop-color:#ffd73b;stop-opacity:1;" />
      <stop
         id="stop3673"
         offset="1"
         style="stop-color:#ee8400;stop-opacity:1;" />
    </linearGradient>
    <linearGradient
       id="linearGradient3764-6">
      <stop
         id="stop3766-4"
         offset="0"
         style="stop-color:#7ed249;stop-opacity:1;" />
      <stop
         id="stop3768-5"
         offset="1"
         style="stop-color:#286325;stop-opacity:1;" />
    </linearGradient>
    <linearGradient
       inkscape:collect="always"
       xlink:href="#linearGradient2868"
       id="linearGradient4070"
       x1="20.042107"
       y1="27.377937"
       x2="42.557896"
       y2="32.336842"
       gradientUnits="userSpaceOnUse"
       gradientTransform="translate(-2.4375,0.85714286)" />
    <linearGradient
       inkscape:collect="always"
       xlink:href="#linearGradient3770"
       id="linearGradient4074"
       x1="15.463158"
       y1="23.449892"
       x2="32.873684"
       y2="26.313049"
       gradientUnits="userSpaceOnUse"
       gradientTransform="translate(-2.4375,0.85714286)" />
    <linearGradient
       inkscape:collect="always"
       xlink:href="#linearGradient3669"
       id="linearGradient4078"
       x1="19.186745"
       y1="4.9018083"
       x2="29.221052"
       y2="7.9386458"
       gradientUnits="userSpaceOnUse"
       gradientTransform="translate(-2.4375,0.85714286)" />
    <filter
       inkscape:collect="always"
       id="filter4086">
      <feGaussianBlur
         inkscape:collect="always"
         stdDeviation="0.3425378"
         id="feGaussianBlur4088" />
    </filter>
    <filter
       inkscape:collect="always"
       id="filter4126"
       x="-0.33380877"
       width="1.6676175"
       y="-0.10388773"
       height="1.2077755">
      <feGaussianBlur
         inkscape:collect="always"
         stdDeviation="0.21909039"
         id="feGaussianBlur4128" />
    </filter>
    <filter
       inkscape:collect="always"
       id="filter4130"
       x="-0.39231492"
       width="1.7846298"
       y="-0.10639105"
       height="1.2127821">
      <feGaussianBlur
         inkscape:collect="always"
         stdDeviation="0.21909039"
         id="feGaussianBlur4132" />
    </filter>
    <linearGradient
       inkscape:collect="always"
       xlink:href="#linearGradient3764-6"
       id="linearGradient3019"
       gradientUnits="userSpaceOnUse"
       gradientTransform="translate(12.464849,-0.82639885)"
       x1="23"
       y1="17"
       x2="21"
       y2="23" />
    <radialGradient
       inkscape:collect="always"
       xlink:href="#linearGradient3669"
       id="radialGradient3021"
       gradientUnits="userSpaceOnUse"
       gradientTransform="matrix(2.0874315,1.1250015,-1.2011212,2.2286691,-16.385243,-58.19097)"
       cx="33.5"
       cy="16.6875"
       fx="33.5"
       fy="16.6875"
       r="1.5" />
    <radialGradient
       inkscape:collect="always"
       xlink:href="#linearGradient3669"
       id="radialGradient3023"
       gradientUnits="userSpaceOnUse"
       gradientTransform="matrix(2.0874315,1.1250015,-1.2011212,2.2286691,-16.385243,-58.19097)"
       cx="33.5"
       cy="16.6875"
       fx="33.5"
       fy="16.6875"
       r="1.5" />
    <linearGradient
       inkscape:collect="always"
       xlink:href="#linearGradient3764-6"
       id="linearGradient3025"
       gradientUnits="userSpaceOnUse"
       gradientTransform="translate(12.464849,-0.82639885)"
       x1="36"
       y1="20"
       x2="32"
       y2="30" />
    <radialGradient
       inkscape:collect="always"
       xlink:href="#linearGradient3764-6"
       id="radialGradient3027"
       gradientUnits="userSpaceOnUse"
       gradientTransform="matrix(1.8444844,0.3014319,-0.2972919,1.8191514,-23.111507,-36.574852)"
       cx="39.104328"
       cy="29.940683"
       fx="39.104328"
       fy="29.940683"
       r="4.7857141" />
    <radialGradient
       inkscape:collect="always"
       xlink:href="#linearGradient3764-6"
       id="radialGradient3029"
       gradientUnits="userSpaceOnUse"
       gradientTransform="matrix(1.2906594,0.02593886,-0.03668308,1.8252679,-10.818596,-26.38679)"
       cx="40.053059"
       cy="30.724264"
       fx="40.053059"
       fy="30.724264"
       r="4.7857141" />
    <radialGradient
       inkscape:collect="always"
       xlink:href="#linearGradient3669"
       id="radialGradient3031"
       gradientUnits="userSpaceOnUse"
       gradientTransform="matrix(2.0874315,1.1250015,-1.2011212,2.2286691,-16.385243,-58.19097)"
       cx="33.5"
       cy="16.6875"
       fx="33.5"
       fy="16.6875"
       r="1.5" />
    <radialGradient
       inkscape:collect="always"
       xlink:href="#linearGradient3669"
       id="radialGradient3033"
       gradientUnits="userSpaceOnUse"
       gradientTransform="matrix(2.0874315,1.1250015,-1.2011212,2.2286691,-4.1703936,-46.892369)"
       cx="33.5"
       cy="16.6875"
       fx="33.5"
       fy="16.6875"
       r="1.5" />
    <filter
       inkscape:collect="always"
       id="filter3644"
       x="-0.062812006"
       width="1.125624"
       y="-0.24873554"
       height="1.4974711">
      <feGaussianBlur
         inkscape:collect="always"
         stdDeviation="0.91605515"
         id="feGaussianBlur3646" />
    </filter>
  </defs>
  <sodipodi:namedview
     id="base"
     pagecolor="#ffffff"
     bordercolor="#666666"
     borderopacity="1.0"
     inkscape:pageopacity="0.0"
     inkscape:pageshadow="2"
     inkscape:zoom="1"
     inkscape:cx="23.195678"
     inkscape:cy="24"
     inkscape:window-width="1152"
     inkscape:window-height="920"
     inkscape:window-x="484"
     inkscape:window-y="24"
     showgrid="false"
     inkscape:window-maximized="0"
     inkscape:current-layer="svg1">
    <inkscape:grid
       type="xygrid"
       id="grid2861" />
  </sodipodi:namedview>
  <metadata
     id="metadata4">
    <rdf:RDF>
      <cc:Work
         rdf:about="">
        <dc:format>image/svg+xml</dc:format>
        <dc:type
           rdf:resource="http://purl.org/dc/dcmitype/StillImage" />
        <dc:title />
      </cc:Work>
    </rdf:RDF>
  </metadata>
  <g
     id="g3009"
     transform="matrix(0.9290677,-0.36990972,0.36990972,0.9290677,-20.130044,19.137966)">
    <path
       sodipodi:nodetypes="ccccc"
       id="path4142"
       d="m 43.464849,26.173601 c -6,-3.333333 -7.245537,-5.165257 -18,-10 -0.341293,-0.926138 -0.76512,-1.88402 1,-2 6.9052,1.919466 13.569287,4.481902 21,5 l -4,7 z"
       style="color:#000000;fill:url(#linearGradient3019);fill-opacity:1;stroke:none;stroke-width:1px;marker:none;visibility:visible;display:inline;overflow:visible;enable-background:accumulate" />
    <path
       sodipodi:type="arc"
       style="fill:url(#radialGradient3021);fill-opacity:1;fill-rule:evenodd;stroke:none"
       id="path4456"
       sodipodi:cx="33.875"
       sodipodi:cy="16.875"
       sodipodi:rx="1.5"
       sodipodi:ry="1.5"
       d="m 35.375,16.875 c 0,0.828427 -0.671573,1.5 -1.5,1.5 -0.828427,0 -1.5,-0.671573 -1.5,-1.5 0,-0.828427 0.671573,-1.5 1.5,-1.5 0.828427,0 1.5,0.671573 1.5,1.5 z"
       transform="translate(-4.2226506,-0.13889886)" />
    <path
       transform="translate(6.9023494,5.1736011)"
       d="m 35.375,16.875 c 0,0.828427 -0.671573,1.5 -1.5,1.5 -0.828427,0 -1.5,-0.671573 -1.5,-1.5 0,-0.828427 0.671573,-1.5 1.5,-1.5 0.828427,0 1.5,0.671573 1.5,1.5 z"
       sodipodi:ry="1.5"
       sodipodi:rx="1.5"
       sodipodi:cy="16.875"
       sodipodi:cx="33.875"
       id="path4452"
       style="fill:url(#radialGradient3023);fill-opacity:1;fill-rule:evenodd;stroke:none"
       sodipodi:type="arc" />
    <path
       sodipodi:nodetypes="ccccc"
       id="path4140"
       d="m 48.107706,33.387887 c -1.630952,-2.440476 -2.192106,-5.201892 -4.892857,-7.321428 -1.347081,-1.333718 -0.36188,-5.946765 2.357143,-7.214287 2.039877,0.653502 4.355324,-0.272797 7.892857,-1.678571 l -5.357143,16.214286 z"
       style="color:#000000;fill:url(#linearGradient3025);fill-opacity:1;stroke:none;stroke-width:1px;marker:none;visibility:visible;display:inline;overflow:visible;enable-background:accumulate" />
    <path
       transform="matrix(0.95484578,0.29710191,-0.29710191,0.95484578,20.979214,-16.083491)"
       d="m 46.857144,30.678572 c 0,4.87194 -2.142637,8.821428 -4.785714,8.821428 -2.643077,0 -4.785714,-3.949488 -4.785714,-8.821428 0,-4.871941 2.142637,-8.821429 4.785714,-8.821429 2.643077,0 4.785714,3.949488 4.785714,8.821429 z"
       sodipodi:ry="8.8214283"
       sodipodi:rx="4.7857141"
       sodipodi:cy="30.678572"
       sodipodi:cx="42.07143"
       id="path4136"
       style="fill:url(#radialGradient3027);fill-rule:evenodd;stroke:none"
       sodipodi:type="arc" />
    <path
       sodipodi:type="arc"
       style="fill:url(#radialGradient3029);fill-rule:evenodd;stroke:none"
       id="path4138"
       sodipodi:cx="42.07143"
       sodipodi:cy="30.678572"
       sodipodi:rx="4.7857141"
       sodipodi:ry="8.8214283"
       d="m 46.857144,30.678572 c 0,4.87194 -2.142637,8.821428 -4.785714,8.821428 -2.643077,0 -4.785714,-3.949488 -4.785714,-8.821428 0,-4.871941 2.142637,-8.821429 4.785714,-8.821429 2.643077,0 4.785714,3.949488 4.785714,8.821429 z"
       transform="matrix(0.82740663,0.257449,-0.257449,0.82740663,25.227294,-10.485151)" />
    <path
       transform="translate(11.902349,3.9861011)"
       d="m 35.375,16.875 c 0,0.828427 -0.671573,1.5 -1.5,1.5 -0.828427,0 -1.5,-0.671573 -1.5,-1.5 0,-0.828427 0.671573,-1.5 1.5,-1.5 0.828427,0 1.5,0.671573 1.5,1.5 z"
       sodipodi:ry="1.5"
       sodipodi:rx="1.5"
       sodipodi:cy="16.875"
       sodipodi:cx="33.875"
       id="path4442"
       style="fill:url(#radialGradient3031);fill-opacity:1;fill-rule:evenodd;stroke:none"
       sodipodi:type="arc" />
    <path
       id="path4448"
       d="m 46.089849,26.673601 c -0.62132,0 -1.147288,0.367877 -1.375,0.90625 0.546858,0.674971 0.98696,1.371134 1.375,2.09375 0.258883,0 0.50621,-0.07204 0.71875,-0.1875 -0.05865,-0.798441 -0.02316,-1.661393 0.09375,-2.5625 -0.234563,-0.151979 -0.512195,-0.25 -0.8125,-0.25 z"
       style="fill:url(#radialGradient3033);fill-opacity:1;fill-rule:evenodd;stroke:none" />
  </g>
  <path
     sodipodi:type="arc"
     style="fill:#000000;fill-opacity:0.76862744999999999;fill-rule:evenodd;stroke:none;filter:url(#filter3644)"
     id="path4468"
     sodipodi:cx="26.339727"
     sodipodi:cy="41.282486"
     sodipodi:rx="17.500893"
     sodipodi:ry="4.4194174"
     d="m 43.84062,41.282486 a 17.500893,4.4194174 0 1 1 -35.0017852,0 17.500893,4.4194174 0 1 1 35.0017852,0 z"
     transform="matrix(0.76493539,0,0,0.93580868,1.3890317,1.3482845)" />
  <path
     style="color:#000000;fill:url(#linearGradient4070);fill-opacity:1;stroke:none;stroke-width:1px;marker:none;visibility:visible;display:inline;overflow:visible;enable-background:accumulate"
     d="m 8.5625,38.857143 c 5,6 17,7 26,0 -4.163806,-10.100572 -8.715857,-20.123495 -14,-30.0000001 -4.859456,9.1405441 -8.461549,19.5384511 -12,30.0000001 z"
     id="path3627"
     sodipodi:nodetypes="cccc" />
  <path
     style="color:#000000;fill:url(#linearGradient4074);stroke:none;stroke-width:1px;marker:none;visibility:visible;display:inline;overflow:visible;enable-background:accumulate"
     d="m 19.5,10.888393 c -0.282469,0.562323 -0.569536,1.116921 -0.84375,1.6875 1.438588,1.337777 3.208079,2.620748 5.4375,3.09375 -0.382082,-0.764662 -0.797529,-1.518166 -1.1875,-2.28125 -1.260823,-0.507014 -2.316886,-1.400701 -3.40625,-2.5 z m -1.65625,3.4375 c -0.322986,0.701219 -0.625017,1.413279 -0.9375,2.125 2.260959,3.840973 7.784405,3.814453 9.5625,4.15625 l 0,-0.0625 c -0.349907,-0.733364 -0.70601,-1.455452 -1.0625,-2.1875 -3.237498,-0.729544 -5.972939,-1.330185 -7.5625,-4.03125 z m -1.90625,4.4375 c -0.274899,0.656522 -0.575972,1.305107 -0.84375,1.96875 4.146799,3.731139 8.885755,4.293266 13.65625,4.75 -0.313433,-0.686329 -0.618883,-1.377208 -0.9375,-2.0625 -4.669244,-0.322801 -8.798116,-1.583009 -11.875,-4.65625 z m -1.71875,4.21875 c -0.265507,0.683381 -0.521578,1.373284 -0.78125,2.0625 4.642367,3.795259 12.177357,5.203947 17.40625,5.09375 C 30.565301,29.504752 30.282411,28.864991 30,28.232143 c -5.125143,0.175512 -11.912781,-1.850959 -15.78125,-5.25 z m -1.5625,4.09375 c -0.273333,0.745165 -0.544158,1.499844 -0.8125,2.25 4.884342,4.630478 15.051106,6.241573 20.9375,5.3125 C 32.516492,34.014828 32.26818,33.386274 32,32.763393 26.355968,33.509535 16.986309,31.2 12.65625,27.075893 z m -1.75,4.96875 c -0.26111,0.74789 -0.523058,1.499193 -0.78125,2.25 5.338284,4.596668 17.232644,6.327836 23.65625,5.125 0.261658,-0.186911 0.524252,-0.362613 0.78125,-0.5625 -0.193616,-0.469675 -0.39842,-0.936918 -0.59375,-1.40625 -5.971306,1.570014 -17.990163,-0.892876 -23.0625,-5.40625 z m -1.59375,4.65625 c -0.245441,0.721695 -0.50556,1.433554 -0.75,2.15625 0.02798,0.03357 0.06533,0.06049 0.09375,0.09375 3.880605,2.641489 9.76986,4.553623 15.375,4.5 1.842698,-0.29525 3.709441,-0.82749 5.53125,-1.625 -6.227967,0.451706 -15.303468,-1.285817 -20.25,-5.125 z"
     id="path3629" />
  <path
     style="color:#000000;fill:#ffffff;fill-opacity:0.74666658;stroke:none;stroke-width:1px;marker:none;visibility:visible;display:inline;overflow:visible;filter:url(#filter4086);enable-background:accumulate"
     d="m 12.86578,27.301551 c -0.196794,-0.256268 5.865543,-15.990087 7.205046,-17.1492 l 3.27502,5.240033 C 19.129921,14.159606 16.350108,23.266837 12.86578,27.301551 z"
     id="path4080"
     sodipodi:nodetypes="cccc" />
  <path
     style="color:#000000;fill:url(#linearGradient4078);stroke:none;stroke-width:1px;marker:none;visibility:visible;display:inline;overflow:visible;enable-background:accumulate"
     d="M 19.373026,11.383456 C 16.892062,9.6123564 14.162235,7.9953182 14.909868,4.225564 c 1.120482,-0.8390057 1.69113,-0.9448976 2.357895,-1.1789474 -0.743281,0.495521 0.893521,4.4434618 2.442105,5.3052631 -0.7446,-1.8644508 -1.214678,-3.683148 -1.010526,-5.3894736 1.104216,-0.3084042 2.361664,-0.1571144 3.621053,0 -1.449534,1.9649123 -1.542358,3.9298245 -1.094737,5.8947368 1.976319,-0.8026282 3.04484,-2.5130542 3.115789,-5.2210526 1.953971,-0.0798 2.191742,0.9325281 2.442106,1.9368421 -1.07413,4.6772686 -2.640759,4.9487386 -4.705573,5.8743036 -0.901652,0.593641 -1.803303,0.766079 -2.704954,-0.06378 z"
     id="path4076"
     sodipodi:nodetypes="ccccccccccc" />
  <path
     style="color:#000000;fill:#ffffff;fill-opacity:0.72444446;stroke:none;stroke-width:1px;marker:none;visibility:visible;display:inline;overflow:visible;filter:url(#filter4126);enable-background:accumulate"
     d="m 16.557617,3.7214006 -1.310004,0.71455 c -0.71641,2.621877 0.609398,3.2015356 1.369554,4.3468459 -0.414232,-1.7265701 -1.156651,-3.4859591 -0.05955,-5.0613959 z"
     id="path4090"
     sodipodi:nodetypes="cccc" />
  <path
     sodipodi:nodetypes="cccc"
     id="path4092"
     d="M 20.36855,2.9473047 19.058546,3.185488 C 18.878049,4.5569025 19.548852,6.5061153 19.892187,7.8896089 19.477955,6.1630388 19.271449,4.5227415 20.36855,2.9473047 z"
     style="color:#000000;fill:#ffffff;fill-opacity:0.72444446;stroke:none;stroke-width:1px;marker:none;visibility:visible;display:inline;overflow:visible;filter:url(#filter4130);enable-background:accumulate" />
</svg>
